<svg xmlns="http://www.w3.org/2000/svg" xmlns:xlink="http://www.w3.org/1999/xlink" width="77.75" height="77.75" viewBox="0 0 77.75 77.75">
  <defs>
    <linearGradient id="linear-gradient" x1="0.64" y1="0.057" x2="0.646" y2="1" gradientUnits="objectBoundingBox">
      <stop offset="0" stop-color="#def2db"/>
      <stop offset="1" stop-color="#fff"/>
    </linearGradient>
  </defs>
  <g id="Loan_icon" data-name="Loan icon" transform="translate(22.16 22.125)">
    <rect id="Loan_background" data-name="Loan background" width="77.75" height="77.75" rx="10" transform="translate(-22.16 -22.125)" fill="url(#linear-gradient)"/>
    <path id="Icon_awesome-hand-holding-heart" data-name="Icon awesome-hand-holding-heart" d="M32.429,22.965a1.9,1.9,0,0,0-2.444,0l-5.3,4.239a3.652,3.652,0,0,1-2.295.8H15.6a.918.918,0,0,1,0-1.836H20.1a1.91,1.91,0,0,0,1.91-1.526A1.838,1.838,0,0,0,20.193,22.5H11.014a6.752,6.752,0,0,0-4.251,1.509L4.1,26.171H.918A.921.921,0,0,0,0,27.089V32.6a.921.921,0,0,0,.918.918H21.386a3.676,3.676,0,0,0,2.295-.8l8.674-6.941A1.835,1.835,0,0,0,32.429,22.965Z" transform="translate(0.488 -3.114)" fill="#6c6"/>
    <g id="Group_135887" data-name="Group 135887" transform="translate(13.002)">
      <path id="Path_229085" data-name="Path 229085" d="M29.154,8.426A8.29,8.29,0,1,1,23.292,6a8.291,8.291,0,0,1,5.862,2.428" transform="translate(-15.001 -5.998)" fill="#fff" stroke="#0c0e2b" stroke-linecap="round" stroke-linejoin="round" stroke-width="1"/>
    </g>
    <path id="Path_229089" data-name="Path 229089" d="M6.8,24.305H4.263A1.347,1.347,0,0,1,3,22.892V14.413A1.347,1.347,0,0,1,4.263,13H6.8a1.347,1.347,0,0,1,1.267,1.413v8.478A1.347,1.347,0,0,1,6.8,24.305Z" transform="translate(-2.996 7.569)" fill="#fff" stroke="#0c0e2b" stroke-linecap="round" stroke-linejoin="round" stroke-width="1" fill-rule="evenodd"/>
    <g id="noun-rupee-1663358" transform="translate(18.501 4)">
      <path id="Path_229102" data-name="Path 229102" d="M181.713,42.546l-.322-.3-.774-.72-.934-.868-.81-.753c-.131-.122-.26-.247-.394-.366l-.005-.005c.043.1.087.209.129.313v-.253l-.443.442h.516c.177,0,.356.006.533,0a2.328,2.328,0,0,0,1.165-.365,2.368,2.368,0,0,0,.8-.868,2.314,2.314,0,0,0-.095-2.342,2.329,2.329,0,0,0-1.966-1.074h-1.179a.461.461,0,0,0-.313.129.444.444,0,0,0,0,.627.459.459,0,0,0,.313.129h1.119a2.455,2.455,0,0,1,.312.016l-.118-.016a1.907,1.907,0,0,1,.483.131l-.105-.044a1.949,1.949,0,0,1,.423.248l-.089-.069a1.95,1.95,0,0,1,.336.336l-.069-.089a1.948,1.948,0,0,1,.248.423l-.044-.105a1.907,1.907,0,0,1,.131.483l-.016-.118a1.9,1.9,0,0,1,0,.491l.016-.118a1.907,1.907,0,0,1-.131.483l.044-.105a1.949,1.949,0,0,1-.248.423l.069-.089a1.951,1.951,0,0,1-.336.336l.089-.069a1.948,1.948,0,0,1-.423.248l.105-.044a1.907,1.907,0,0,1-.483.131l.118-.016a3.689,3.689,0,0,1-.474.016h-.733a.449.449,0,0,0-.442.442c0,.082,0,.165,0,.247a.466.466,0,0,0,.147.335l.17.158.741.689.982.914.885.823c.146.136.291.273.438.408l.006.005a.465.465,0,0,0,.313.129.451.451,0,0,0,.313-.129.443.443,0,0,0,0-.627Z" transform="translate(-177.494 -35.381)" fill="#0c0e2b"/>
      <path id="Path_229103" data-name="Path 229103" d="M177.988,36.142h4.117c.19,0,.381,0,.57,0h.008a.461.461,0,0,0,.313-.129.444.444,0,0,0,0-.627.459.459,0,0,0-.313-.129h-4.117c-.19,0-.381,0-.57,0h-.008a.461.461,0,0,0-.313.129.444.444,0,0,0,0,.627A.461.461,0,0,0,177.988,36.142Z" transform="translate(-177.545 -35.256)" fill="#0c0e2b"/>
      <path id="Path_229104" data-name="Path 229104" d="M177.988,152.576h4.117c.19,0,.381,0,.57,0h.008a.461.461,0,0,0,.313-.129.444.444,0,0,0,0-.627.459.459,0,0,0-.313-.129h-4.117c-.19,0-.381,0-.57,0h-.008a.461.461,0,0,0-.313.129.444.444,0,0,0,0,.627A.465.465,0,0,0,177.988,152.576Z" transform="translate(-177.545 -149.806)" fill="#0c0e2b"/>
    </g>
  </g>
</svg>
